<?xml version="1.0" standalone="no"?>
<!DOCTYPE svg PUBLIC "-//W3C//DTD SVG 20010904//EN"
 "http://www.w3.org/TR/2001/REC-SVG-20010904/DTD/svg10.dtd">
<svg version="1.0" xmlns="http://www.w3.org/2000/svg"
 width="1293.000000pt" height="1293.000000pt" viewBox="0 0 1293.000000 1293.000000"
 preserveAspectRatio="xMidYMid meet">
<metadata>
Created by potrace 1.11, written by Peter Selinger 2001-2013
</metadata>
<g transform="translate(0.000000,1293.000000) scale(0.100000,-0.100000)"
fill="#000000" stroke="none">
<path d="M2020 10485 c0 -21 4 -30 12 -28 4 2 5 -4 2 -12 -4 -8 -11 -12 -18
-8 -6 3 -7 2 -3 -2 11 -13 60 -18 53 -6 -7 10 10 24 32 27 11 2 11 -1 0 -13
-21 -26 -19 -45 4 -37 15 4 18 3 13 -6 -6 -9 -4 -11 4 -5 9 5 10 10 2 18 -14
14 -14 27 0 27 5 0 7 -5 3 -11 -4 -8 0 -9 15 -4 14 4 21 2 21 -6 0 -7 3 -9 6
-6 4 4 1 13 -5 21 -10 12 -8 14 11 10 13 -2 17 -2 10 2 -6 3 -9 10 -6 15 3 6
-4 7 -19 4 -27 -7 -46 9 -21 19 8 3 12 2 9 -4 -3 -6 -1 -10 4 -10 6 0 11 5 11
11 0 5 4 8 9 4 5 -3 12 -1 15 4 4 5 -30 10 -79 10 -69 1 -85 -2 -85 -14z"/>
<path d="M1105 10410 c-4 -6 -11 -8 -16 -5 -5 4 -6 -2 -2 -12 6 -16 5 -17 -12
-3 -14 11 -17 12 -11 1 6 -9 5 -12 -5 -9 -8 3 -13 11 -11 17 1 7 -2 10 -8 6
-6 -3 -8 -10 -5 -15 3 -5 -5 -16 -17 -24 -20 -15 -18 -21 6 -17 5 1 4 -5 -4
-13 -8 -10 -9 -16 -2 -16 17 0 35 37 20 42 -9 3 -9 6 0 12 7 4 12 2 12 -4 0
-6 5 -8 12 -4 19 12 48 12 48 1 0 -15 14 1 16 19 2 11 -3 14 -14 10 -13 -5
-12 -2 2 9 11 8 15 15 9 15 -7 0 -15 -5 -18 -10z"/>
<path d="M1043 10334 c-17 -19 -26 -34 -21 -34 5 0 7 -4 4 -8 -2 -4 5 -9 16
-9 11 -1 27 -12 35 -23 11 -16 18 -19 23 -10 9 14 -20 49 -34 42 -5 -3 -6 0
-2 6 4 7 17 9 30 6 16 -4 25 0 29 10 4 9 2 16 -4 16 -6 0 -8 4 -5 9 3 4 -5 13
-18 19 -19 9 -27 5 -53 -24z m15 -19 c-6 -13 -15 -22 -19 -19 -5 2 -1 14 9 24
22 26 24 25 10 -5z"/>
<path d="M1143 10363 c4 -6 1 -14 -5 -16 -8 -3 -5 -6 6 -6 17 -1 16 -4 -7 -27
-24 -24 -29 -52 -7 -39 4 3 11 -1 13 -7 4 -10 6 -10 6 0 1 8 6 10 14 6 7 -4 9
-3 4 2 -5 5 -13 10 -18 10 -22 3 -23 6 -5 13 25 10 30 45 9 62 -9 8 -14 9 -10
2z"/>
<path d="M4820 10296 c0 -11 5 -16 14 -13 7 3 18 1 23 -4 6 -6 10 -4 10 5 0 7
-7 13 -16 11 -9 -1 -19 3 -23 9 -5 7 -8 4 -8 -8z"/>
<path d="M4796 10265 c-9 -26 -7 -32 5 -12 6 10 9 21 6 23 -2 3 -7 -2 -11 -11z"/>
<path d="M6910 10270 c-13 -8 -14 -46 -2 -95 13 -53 15 -155 3 -155 -5 0 -8
-8 -7 -17 2 -9 -10 -67 -25 -127 -15 -60 -27 -114 -26 -120 1 -6 -3 -10 -10
-9 -8 2 -10 -4 -6 -14 4 -10 2 -14 -4 -10 -6 4 -9 -7 -6 -31 3 -27 1 -34 -7
-26 -6 6 -12 21 -13 33 -1 21 -22 25 -22 3 0 -5 -3 -13 -8 -16 -4 -3 -5 -3 -3
0 2 3 0 19 -4 35 -5 17 -5 31 1 35 6 3 6 10 1 17 -5 7 -9 59 -10 117 0 94 2
110 27 160 15 30 27 68 27 85 -1 25 -7 32 -36 41 -55 18 -118 22 -162 11 -39
-10 -40 -11 -35 -46 10 -59 13 -70 20 -77 4 -4 7 -15 7 -25 0 -9 4 -19 10 -21
11 -3 16 -120 6 -136 -3 -6 -2 -13 2 -16 5 -3 9 -41 9 -86 0 -61 -4 -80 -14
-80 -8 0 -11 -5 -8 -10 4 -6 12 -8 18 -4 7 3 3 -2 -7 -10 -15 -12 -16 -16 -5
-16 12 0 12 -2 0 -9 -8 -5 -12 -18 -8 -30 8 -30 -17 -27 -42 7 -24 32 -28 14
-5 -29 8 -17 13 -33 10 -37 -9 -8 -66 58 -67 77 0 9 -2 23 -4 32 -3 19 16 106
38 165 14 39 14 43 -4 63 -24 25 -52 33 -99 28 -52 -7 -80 -18 -80 -33 0 -7
-8 -18 -17 -23 -10 -6 -12 -11 -5 -11 6 0 12 -11 12 -24 0 -13 7 -40 16 -61 8
-21 13 -44 10 -52 -3 -8 -1 -11 4 -8 11 7 11 14 14 -170 1 -77 -1 -152 -5
-168 -5 -19 -4 -25 3 -21 8 5 9 1 5 -10 -4 -10 -7 -21 -7 -26 0 -4 -8 -7 -17
-5 -10 2 -22 4 -26 4 -5 1 -6 5 -3 9 3 4 1 26 -4 48 -5 21 -11 56 -14 78 -4
21 -9 42 -11 46 -3 5 -1 12 5 15 7 4 8 11 2 18 -5 7 -13 46 -16 87 -4 41 -9
89 -10 105 -2 17 2 36 8 44 8 11 8 13 0 8 -8 -5 -12 9 -14 46 0 28 -2 72 -4
95 -3 54 12 156 24 160 5 2 6 10 3 18 -3 8 -1 14 3 14 11 0 10 45 0 77 -4 13
-19 26 -32 29 -31 8 -100 -1 -140 -17 -16 -7 -32 -12 -36 -11 -3 1 -2 -13 3
-31 6 -17 12 -40 14 -49 2 -9 9 -26 15 -38 21 -40 24 -65 26 -265 1 -110 4
-255 7 -322 5 -123 5 -123 -17 -123 -20 0 -25 8 -36 58 -7 31 -14 69 -15 83
-1 14 -7 34 -12 45 -5 10 -9 26 -8 34 1 8 -2 20 -6 25 -4 6 -10 33 -14 60 -7
44 -10 60 -18 100 -2 6 -5 15 -8 20 -7 12 -28 92 -32 120 -1 11 -6 26 -11 33
-4 7 -2 20 6 29 7 9 8 14 2 10 -13 -8 -27 19 -18 34 3 5 0 9 -5 9 -12 0 -15
92 -5 103 6 6 8 58 5 109 -2 26 -54 32 -106 13 -24 -10 -51 -15 -60 -12 -8 4
-15 2 -15 -3 0 -6 -8 -10 -18 -10 -51 0 -44 -48 16 -115 7 -8 10 -15 6 -15 -4
0 -1 -6 8 -12 19 -15 51 -106 44 -125 -3 -7 -1 -12 3 -10 5 1 10 -1 11 -5 1
-4 5 -22 10 -39 5 -18 12 -50 16 -73 3 -22 7 -43 9 -46 2 -4 7 -29 10 -56 4
-27 9 -57 11 -66 6 -19 -20 -26 -31 -8 -26 43 -46 -44 -31 -135 4 -22 9 -56
12 -75 3 -19 8 -38 11 -42 2 -5 -2 -8 -9 -8 -8 0 -9 -3 -3 -8 6 -4 11 -13 13
-20 8 -40 23 -145 28 -199 5 -55 3 -63 -12 -63 -10 0 -15 3 -11 6 3 4 -1 13
-9 21 -11 12 -12 18 -3 29 9 11 8 15 -4 20 -9 3 -14 14 -12 25 2 10 0 19 -4
19 -9 0 -26 68 -22 85 2 6 3 36 4 69 1 52 -2 61 -26 82 -22 18 -36 22 -68 19
-23 -3 -51 -11 -63 -19 -20 -12 -24 -12 -39 7 -9 12 -17 24 -18 27 -4 27 -11
47 -33 92 -14 29 -26 58 -26 65 0 14 -59 19 -61 6 -6 -53 -5 -75 3 -113 5 -25
11 -58 13 -75 9 -64 17 -101 31 -127 8 -15 14 -30 13 -33 -1 -10 12 -70 23
-98 8 -21 8 -31 -2 -40 -10 -9 -11 -9 -6 1 4 7 2 12 -5 12 -7 0 -10 2 -7 5 3
3 -16 51 -43 106 -27 54 -49 105 -49 112 0 7 -6 22 -14 33 -8 11 -16 29 -18
39 -1 11 -6 22 -9 25 -11 9 -49 89 -49 104 0 8 -5 16 -11 18 -6 2 -12 15 -12
30 -1 14 -5 25 -8 23 -5 -4 -28 49 -29 67 0 4 -15 40 -32 80 -20 47 -32 94
-34 133 -2 33 -4 62 -5 65 -1 3 -1 8 0 13 0 4 -4 7 -10 7 -5 0 -8 4 -5 8 3 5
-3 9 -12 10 -47 5 -77 -1 -130 -25 -31 -15 -60 -26 -64 -25 -4 1 -5 -4 -2 -12
3 -8 1 -17 -5 -20 -11 -7 -4 -36 10 -36 13 0 113 -102 115 -117 1 -7 9 -20 18
-29 9 -8 16 -20 16 -26 0 -6 14 -40 30 -75 17 -35 32 -71 34 -81 1 -9 6 -26
10 -37 4 -11 20 -54 36 -95 47 -126 49 -137 37 -150 -9 -10 -9 -11 0 -6 14 8
47 -60 38 -81 -2 -8 0 -11 5 -8 6 3 10 -2 11 -12 0 -10 2 -25 4 -33 7 -27 17
-75 19 -95 2 -11 7 -28 11 -37 10 -24 -18 -63 -32 -46 -20 25 -42 76 -36 82 4
3 1 6 -5 6 -6 0 -13 14 -17 30 -4 17 -11 30 -17 30 -6 0 -9 3 -6 6 3 3 -5 17
-18 31 -13 14 -24 34 -24 44 0 9 -5 19 -10 21 -6 2 -12 13 -13 25 0 12 -5 19
-9 17 -7 -5 -9 3 -7 22 0 3 -9 14 -20 23 -11 10 -18 21 -14 25 3 3 2 6 -4 6
-6 0 -16 14 -23 30 -7 17 -17 30 -22 30 -5 0 -6 5 -3 10 3 6 1 10 -4 10 -6 0
-11 7 -11 15 0 8 -4 15 -10 15 -5 0 -10 6 -10 13 0 8 -9 24 -20 37 -11 13 -20
29 -20 37 0 8 -7 21 -15 30 -8 8 -13 19 -10 24 4 5 2 9 -3 9 -6 0 -12 15 -15
33 -29 162 -31 166 -66 169 -45 2 -65 -2 -104 -22 -21 -11 -44 -20 -53 -20 -8
0 -13 -4 -10 -9 3 -4 -3 -16 -14 -26 -11 -10 -20 -21 -20 -25 0 -4 21 -27 46
-51 127 -120 156 -155 166 -199 1 -3 8 -11 15 -18 7 -8 11 -18 8 -23 -4 -5 0
-9 8 -9 7 0 14 -6 14 -12 0 -7 4 -20 7 -29 6 -13 -2 -18 -44 -23 -36 -5 -68
-19 -108 -46 l-56 -39 -23 21 c-13 12 -23 28 -23 36 0 9 -3 13 -6 9 -3 -3 -18
5 -32 18 -20 19 -29 22 -45 14 -16 -9 -18 -17 -12 -47 4 -20 12 -40 18 -44 7
-4 9 -8 4 -8 -4 0 0 -11 9 -25 9 -14 13 -25 10 -25 -4 0 2 -9 13 -21 11 -12
18 -32 17 -49 -1 -16 2 -26 9 -24 5 2 37 -53 70 -122 33 -70 68 -136 78 -147
14 -17 19 -36 16 -63 0 -3 7 -11 15 -17 9 -7 20 -27 25 -44 8 -29 7 -33 -10
-34 -51 -4 -70 -1 -67 9 3 10 -25 52 -35 52 -18 0 -78 60 -71 72 3 5 2 8 -3 7
-17 -3 -33 1 -32 9 3 20 -2 32 -15 32 -14 0 -32 36 -28 53 1 5 -2 6 -7 3 -5
-4 -16 1 -23 10 -7 9 -25 29 -40 44 -16 16 -28 32 -28 38 0 5 -7 13 -16 16
-10 4 -14 12 -10 23 4 10 4 14 0 10 -4 -4 -28 12 -53 35 -25 24 -41 36 -35 28
5 -9 1 -7 -9 4 -10 10 -15 26 -12 34 4 12 3 12 -9 3 -11 -9 -18 -7 -34 14 -11
14 -25 25 -31 25 -6 0 -11 4 -11 9 0 15 -52 23 -61 10 -4 -7 -5 -17 -2 -21 2
-5 -1 -16 -8 -24 -10 -12 -10 -15 1 -12 8 2 20 -10 28 -27 8 -16 23 -41 33
-54 10 -13 16 -28 12 -35 -3 -6 -3 -8 1 -4 10 8 41 -23 60 -61 9 -16 24 -35
33 -40 10 -6 14 -11 10 -11 -11 0 32 -61 55 -78 10 -7 15 -18 12 -24 -4 -6 6
-21 21 -34 16 -13 24 -24 19 -24 -5 -1 0 -8 11 -18 11 -9 26 -29 34 -44 8 -16
18 -28 23 -28 5 0 6 -4 3 -10 -3 -5 -2 -10 4 -10 5 0 8 -9 6 -19 -4 -21 25
-61 44 -61 16 0 31 -42 20 -56 -5 -6 -6 -14 -2 -17 3 -4 -5 -7 -19 -7 -16 0
-48 22 -97 68 -39 37 -96 89 -126 116 -30 27 -51 54 -48 59 3 6 1 7 -5 3 -7
-4 -12 -2 -12 3 0 6 -7 11 -16 11 -10 0 -14 6 -10 15 3 8 2 15 -2 15 -17 0
-71 53 -65 63 3 5 2 7 -3 4 -6 -3 -32 17 -59 45 -28 28 -43 48 -35 44 8 -4 6
0 -4 8 -11 9 -16 16 -10 16 5 0 3 4 -4 8 -9 6 -10 16 -4 33 5 13 8 34 7 46 -1
13 5 23 15 26 9 2 17 -2 17 -9 0 -7 -4 -11 -8 -9 -4 3 -9 -2 -13 -10 -3 -8 0
-17 6 -21 7 -4 6 -10 -3 -16 -11 -8 -11 -9 1 -5 8 2 14 13 12 23 -2 18 -2 18
12 1 9 -12 16 -14 21 -8 3 6 1 11 -4 11 -6 0 -11 7 -11 16 0 9 5 12 13 8 7 -5
6 0 -3 12 -28 35 -39 44 -56 44 -16 0 -16 1 -1 18 14 15 15 19 2 19 -8 0 -12
-4 -10 -8 3 -3 -2 -12 -10 -19 -9 -8 -15 -9 -15 -2 0 6 -9 10 -20 9 -11 -1
-20 -7 -20 -15 0 -7 3 -11 8 -9 4 3 13 -1 19 -9 26 -28 -5 -22 -32 6 -16 17
-39 30 -52 30 -68 0 -217 -158 -167 -177 8 -3 11 -9 8 -14 -3 -5 4 -9 14 -9
29 0 77 -27 60 -33 -7 -3 -4 -5 7 -5 43 2 66 -2 60 -12 -3 -5 3 -10 14 -10 12
0 21 -4 21 -10 0 -5 7 -10 15 -10 8 0 20 -9 27 -20 7 -11 18 -20 25 -20 7 0
13 -3 13 -8 0 -4 26 -36 58 -71 31 -36 56 -68 54 -73 -1 -4 3 -8 9 -8 6 0 9
-7 6 -14 -4 -10 -1 -13 7 -10 8 3 26 -12 43 -35 17 -23 33 -38 36 -34 4 3 7 1
7 -5 0 -12 21 -39 73 -93 15 -16 25 -35 21 -41 -4 -6 -3 -8 4 -4 6 3 20 -6 31
-21 11 -16 27 -35 35 -43 23 -25 24 -55 1 -57 -25 -3 -79 43 -69 59 4 6 3 8
-4 4 -6 -3 -13 -2 -17 3 -3 5 3 14 12 20 11 6 13 11 5 11 -13 0 -50 30 -37 30
3 0 -2 11 -11 25 -9 14 -26 25 -38 25 -17 0 -18 2 -6 10 12 8 11 10 -7 10 -12
0 -24 -6 -26 -12 -4 -10 -6 -10 -6 0 -1 6 -6 12 -12 12 -5 0 -7 -4 -4 -10 3
-5 0 -11 -7 -11 -7 -1 -23 -3 -35 -4 -15 -2 -26 7 -39 31 -20 37 -65 59 -82
42 -13 -13 -114 51 -104 66 3 5 1 6 -5 3 -10 -6 -47 18 -90 61 -13 12 -28 22
-33 22 -5 0 -15 9 -23 20 -8 11 -17 17 -20 13 -4 -3 -7 2 -7 12 0 10 -3 15 -7
11 -7 -6 -72 90 -73 107 0 17 -29 37 -52 37 -28 0 -59 -27 -92 -78 -30 -48
-38 -92 -19 -99 12 -5 12 -7 1 -14 -9 -6 -2 -9 20 -9 18 0 32 -5 32 -12 0 -6
3 -9 6 -6 8 9 97 -25 127 -48 14 -12 23 -24 20 -28 -3 -3 0 -6 8 -6 8 0 35
-18 59 -40 24 -22 48 -40 53 -40 4 0 5 -5 2 -10 -4 -6 -3 -9 2 -8 18 6 70 -48
66 -67 -14 -64 -14 -79 -3 -100 7 -13 18 -21 25 -19 7 3 16 1 20 -5 3 -6 14
-11 24 -11 9 0 22 -5 28 -11 6 -6 30 -12 54 -13 26 -2 46 -9 54 -19 7 -9 18
-17 24 -17 7 0 9 -5 5 -12 -4 -7 -3 -8 4 -4 6 4 27 -9 46 -27 19 -19 38 -32
41 -28 4 3 5 -7 3 -24 -3 -28 -6 -30 -38 -27 -19 1 -36 7 -38 12 -2 6 -8 10
-13 10 -6 0 -7 -6 -3 -12 6 -10 4 -10 -7 0 -7 6 -23 12 -36 12 -13 0 -23 5
-23 10 0 6 -9 10 -20 10 -11 0 -20 5 -20 10 0 6 -9 10 -21 10 -13 0 -18 4 -13
12 4 7 3 8 -5 4 -6 -4 -18 -1 -26 6 -32 29 -45 38 -45 33 0 -6 -60 24 -70 35
-3 3 -31 21 -62 40 -32 19 -58 38 -58 42 0 4 -6 8 -13 8 -7 0 -23 9 -35 20
-12 11 -27 20 -33 20 -7 0 -10 3 -6 6 3 4 -17 18 -46 32 -28 14 -60 33 -70 42
-10 8 -31 25 -45 37 -15 13 -31 23 -35 23 -5 0 -5 5 -2 10 3 6 1 10 -4 10 -6
0 -11 6 -11 14 0 7 -7 19 -15 26 -8 7 -12 17 -8 23 3 5 2 8 -3 5 -10 -6 -36
17 -28 25 3 2 -6 7 -20 9 -17 4 -36 -5 -66 -28 -22 -18 -40 -35 -38 -37 2 -3
-10 -24 -25 -48 -36 -55 -31 -89 13 -89 17 0 30 -4 30 -10 0 -5 14 -10 32 -10
36 0 98 -20 98 -32 0 -4 4 -8 10 -8 11 0 153 -92 174 -113 8 -8 12 -18 8 -22
-4 -5 -2 -5 5 -2 6 4 18 0 26 -8 9 -8 20 -15 26 -15 6 0 11 -4 11 -10 0 -5 7
-10 15 -10 8 0 15 -5 15 -11 0 -5 -5 -7 -12 -3 -6 4 -8 3 -5 -4 4 -5 17 -8 29
-4 14 3 19 2 14 -6 -4 -7 -1 -12 8 -12 9 0 16 -4 16 -8 0 -5 21 -24 48 -42 26
-19 49 -37 52 -40 3 -4 35 -27 72 -52 38 -24 65 -48 61 -51 -3 -4 1 -7 11 -7
9 0 19 -7 22 -15 4 -8 10 -12 15 -9 5 3 9 -4 9 -15 0 -17 -4 -19 -22 -12 -44
17 -153 74 -156 83 -2 4 -17 8 -33 8 -16 0 -29 5 -29 10 0 6 -7 10 -16 10 -8
0 -12 5 -9 10 3 6 -4 10 -18 10 -13 0 -36 9 -50 20 -14 11 -28 20 -32 20 -14
0 -63 64 -58 75 4 5 3 7 -2 3 -4 -4 -21 8 -39 25 -22 23 -40 32 -63 32 -17 0
-29 -3 -27 -7 3 -4 -2 -10 -9 -15 -18 -11 -57 -77 -57 -97 0 -22 -27 -20 -42
4 -7 11 -18 20 -25 20 -6 0 -14 9 -18 19 -6 19 -24 31 -58 38 -19 3 -50 -20
-40 -31 4 -3 1 -6 -6 -6 -14 0 -55 -67 -57 -92 -1 -10 -3 -20 -4 -23 -4 -8 -7
-24 -9 -41 -1 -14 -3 -15 -18 -3 -14 12 -16 12 -9 -1 6 -12 5 -12 -6 1 -7 8
-24 18 -37 22 -33 8 -81 -43 -101 -109 -20 -64 -15 -83 21 -91 16 -3 29 -8 29
-12 0 -4 30 -4 66 -1 36 3 67 3 70 -1 2 -3 19 -9 38 -12 19 -3 52 -13 73 -22
21 -10 49 -22 63 -27 14 -6 33 -14 42 -19 10 -5 25 -9 33 -9 9 0 14 -4 11 -8
-2 -4 7 -9 21 -10 14 -1 31 -6 37 -11 6 -5 27 -12 46 -16 19 -4 41 -12 49 -19
8 -6 17 -10 20 -10 3 1 23 -5 44 -13 37 -15 50 -44 26 -59 -6 -3 -9 -23 -7
-44 3 -36 2 -38 -22 -33 -53 10 -82 22 -76 32 3 4 -9 13 -25 20 -16 7 -27 17
-23 22 3 5 -9 9 -25 9 -17 0 -31 4 -31 8 0 10 -36 9 -46 -1 -4 -4 -15 -7 -25
-7 -14 0 -33 -31 -30 -52 0 -3 -6 -11 -14 -18 -7 -6 -11 -18 -8 -26 5 -13 -9
-19 -32 -14 -32 7 -42 9 -63 9 -13 1 -21 5 -18 9 3 4 -5 8 -17 9 -65 1 -78 4
-72 14 4 6 1 10 -6 8 -32 -4 -70 2 -65 10 3 5 0 9 -7 8 -36 -1 -57 4 -52 13 3
6 -3 10 -14 10 -12 0 -21 7 -21 15 0 8 -3 14 -7 13 -10 -1 -46 13 -53 21 -3 4
-17 12 -31 18 -23 10 -29 8 -50 -16 -13 -15 -25 -41 -26 -57 -3 -33 -12 -100
-18 -127 -3 -17 31 -40 46 -31 18 10 176 13 212 3 23 -6 55 -13 71 -15 17 -2
33 -9 37 -15 3 -6 9 -10 13 -9 4 1 12 -1 19 -3 6 -3 -4 -4 -23 -3 -61 2 -94
-48 -88 -135 3 -39 7 -46 38 -60 19 -9 37 -14 40 -9 6 8 20 9 105 11 33 0 72
-4 86 -10 15 -5 29 -7 32 -5 3 3 23 0 45 -5 22 -6 55 -13 73 -16 47 -7 77 -13
129 -24 25 -5 62 -12 83 -16 20 -4 37 -12 37 -17 0 -5 4 -7 9 -4 5 3 23 3 39
0 26 -5 29 -9 22 -28 -4 -11 -13 -20 -20 -18 -6 1 -9 -2 -5 -7 3 -6 -4 -15
-15 -21 -12 -6 -30 -20 -41 -31 -14 -14 -33 -19 -76 -19 -32 0 -192 0 -356 -1
-167 0 -295 -4 -292 -9 3 -5 1 -11 -4 -15 -18 -10 0 -34 34 -47 19 -6 32 -14
30 -17 -2 -3 15 -7 38 -8 22 -2 43 -7 46 -11 3 -5 31 -10 61 -11 30 -1 57 -7
58 -12 2 -5 23 -9 46 -9 24 0 46 -3 50 -7 4 -4 28 -9 54 -10 26 -1 66 -7 88
-14 23 -6 61 -12 85 -14 75 -4 149 -17 149 -26 0 -5 6 -9 13 -9 7 0 23 -9 36
-21 16 -15 19 -24 12 -33 -6 -7 -7 -16 -3 -20 4 -4 0 -6 -8 -4 -8 2 -18 8 -22
13 -5 6 -8 5 -8 -2 0 -7 -5 -13 -11 -13 -5 0 -7 5 -4 10 8 13 -18 8 -27 -5 -5
-6 -8 -5 -8 3 0 6 -5 12 -11 12 -5 0 -7 -5 -3 -11 4 -7 -3 -6 -17 2 -13 7 -30
12 -38 10 -7 -1 -11 1 -8 6 3 5 -2 10 -11 11 -9 1 -34 4 -55 8 -46 8 -80 -8
-96 -43 -16 -34 -14 -51 10 -100 20 -41 20 -45 5 -62 -17 -19 -127 -42 -208
-45 -20 0 -34 -4 -31 -8 2 -5 -25 -9 -61 -9 -76 -2 -77 -2 -92 -11 -6 -4 -56
-8 -110 -7 -125 0 -134 1 -128 11 3 4 -7 8 -21 8 -16 0 -24 4 -19 11 5 8 1 8
-14 0 -14 -8 -23 -8 -27 -1 -4 6 -14 10 -23 9 -30 -3 -43 1 -37 10 3 5 2 12
-2 14 -18 11 -20 -130 -4 -205 l12 -58 45 0 c24 0 44 3 44 8 0 4 15 13 32 21
18 8 35 18 38 22 3 5 35 10 70 13 36 3 65 6 65 7 0 1 20 3 45 4 159 10 235 17
313 26 95 11 122 8 113 -16 -3 -8 -2 -14 2 -13 4 1 19 -4 33 -10 54 -22 60
-21 166 39 34 19 60 26 33 9 -11 -7 -3 -10 28 -10 44 0 85 -23 59 -33 -6 -3
-2 -6 10 -6 19 -1 22 -6 19 -36 -1 -20 -11 -42 -24 -53 -12 -11 -19 -22 -15
-26 6 -5 -29 -11 -50 -7 -5 1 -6 -3 -2 -9 3 -5 -1 -10 -9 -10 -24 0 -23 0 -65
-15 -22 -7 -42 -11 -45 -8 -3 4 -6 0 -6 -7 0 -7 -3 -11 -6 -7 -4 3 -20 -1 -36
-9 -16 -9 -36 -13 -43 -10 -7 2 -16 -2 -19 -10 -3 -8 -19 -14 -36 -14 -16 0
-30 -4 -30 -8 0 -5 -42 -19 -92 -32 -51 -13 -99 -27 -105 -33 -9 -6 -18 -5
-28 3 -13 11 -14 10 -9 -5 6 -13 4 -16 -5 -10 -8 4 -16 3 -20 -4 -4 -6 -22
-13 -39 -14 -18 -1 -32 -5 -32 -9 0 -5 -6 -8 -13 -8 -8 0 -19 -11 -27 -24 -21
-40 1 -52 93 -53 42 0 77 3 77 6 0 4 20 8 45 10 24 1 76 8 115 15 39 8 80 12
90 9 11 -3 20 -1 20 5 0 11 38 21 114 29 34 4 46 2 42 -6 -4 -6 -15 -11 -25
-11 -10 0 -32 -7 -49 -16 -18 -8 -36 -13 -42 -9 -5 3 -10 3 -10 -2 0 -16 -164
-70 -232 -77 -25 -2 -51 -7 -57 -10 -5 -4 -12 -2 -15 2 -3 5 -35 9 -70 8 -87
-2 -105 -19 -95 -91 5 -27 12 -62 16 -76 11 -37 55 -89 75 -89 23 0 68 21 68
32 0 4 6 8 13 8 7 0 19 9 27 20 8 11 20 20 28 20 7 0 11 4 8 8 -7 12 89 52
129 54 19 1 35 6 35 12 0 22 20 -20 20 -42 0 -18 -12 -28 -57 -49 -32 -15 -64
-26 -71 -24 -7 1 -12 -2 -11 -6 1 -4 -1 -16 -6 -26 -4 -10 -5 -21 -1 -24 10
-11 95 -20 103 -12 5 5 25 10 46 11 20 2 37 5 37 8 0 5 106 33 135 36 6 0 17
3 25 7 8 3 32 8 53 11 28 3 37 1 37 -10 0 -8 -9 -14 -21 -14 -11 0 -40 -13
-64 -30 -24 -16 -53 -30 -64 -30 -12 0 -21 -4 -21 -9 0 -5 -23 -20 -50 -32
-27 -12 -50 -25 -50 -29 0 -3 -16 -12 -35 -20 -19 -8 -35 -17 -35 -22 0 -4 -4
-8 -10 -8 -5 0 -19 -8 -30 -17 -11 -10 -24 -18 -28 -18 -4 0 -18 -10 -32 -22
-22 -22 -34 -27 -52 -24 -5 0 -7 -2 -6 -7 1 -4 -4 -20 -10 -35 -7 -16 -12 -31
-12 -33 0 -3 29 -4 64 -2 35 2 62 6 61 9 -2 3 18 11 45 18 28 7 50 17 50 23 0
6 8 4 17 -3 9 -8 14 -9 10 -3 -6 11 23 31 53 36 8 2 21 9 28 16 8 7 18 10 23
7 5 -4 9 -1 9 4 0 6 7 11 15 11 9 0 35 9 57 20 23 11 48 20 55 20 7 0 13 4 13
8 0 4 21 13 48 21 26 7 57 17 69 23 12 6 31 8 42 5 11 -3 20 -2 19 2 -1 3 2
14 6 24 11 23 101 25 110 1 9 -23 8 -24 -14 -24 -11 0 -20 -4 -20 -10 0 -5 -7
-10 -15 -10 -8 0 -15 -4 -15 -10 0 -5 -3 -9 -7 -9 -24 4 -186 -3 -175 -8 9 -3
7 -10 -9 -24 -17 -15 -22 -31 -24 -79 -1 -34 2 -55 7 -48 5 8 8 2 8 -18 0 -17
-7 -37 -15 -44 -8 -7 -15 -10 -15 -6 0 3 -9 -2 -19 -11 -25 -23 -33 -29 -106
-83 -33 -25 -69 -53 -79 -62 -11 -10 -24 -18 -29 -18 -5 0 -16 -9 -25 -20 -10
-12 -27 -22 -39 -23 -12 0 -19 -5 -17 -9 5 -8 -11 -12 -30 -9 -5 1 -12 -3 -16
-9 -3 -5 -25 -11 -47 -13 -23 -1 -39 -5 -36 -10 3 -6 -36 -10 -64 -6 -17 2
-38 -67 -22 -76 5 -4 7 -11 4 -16 -4 -5 -1 -9 5 -9 6 0 8 -4 5 -10 -3 -5 -2
-10 3 -10 5 0 15 -12 23 -28 28 -53 88 -84 114 -57 6 5 16 22 24 38 8 15 21
27 28 27 8 0 12 4 9 9 -7 10 27 51 42 51 6 0 12 4 14 8 4 11 94 72 106 72 6 0
12 4 14 8 5 14 102 77 113 74 6 -2 7 0 3 4 -11 11 12 34 34 34 12 0 17 4 12
12 -5 8 0 9 14 6 12 -4 20 -3 17 1 -2 5 13 17 34 27 22 10 37 22 35 26 -3 5 4
8 15 8 12 0 21 5 21 10 0 6 6 10 14 10 21 0 67 26 59 33 -3 4 3 7 15 7 12 0
22 5 22 10 0 6 11 10 25 10 14 0 28 7 31 15 4 8 10 13 14 10 5 -3 11 -1 15 5
3 5 17 10 30 10 18 0 22 -4 18 -20 -6 -23 -19 -26 -27 -7 -3 6 -3 2 0 -10 3
-14 1 -23 -6 -23 -14 0 -61 -46 -54 -53 3 -3 -8 -11 -25 -18 -16 -7 -27 -18
-23 -24 3 -5 -3 -3 -14 5 -10 8 -16 10 -11 5 9 -10 -52 -68 -104 -97 -22 -12
-39 -25 -39 -30 0 -4 -7 -8 -15 -8 -8 0 -15 -3 -15 -7 0 -5 -11 -13 -25 -20
-14 -6 -25 -7 -25 -2 0 5 -5 9 -11 9 -5 0 -7 -4 -4 -10 4 -6 -7 -10 -24 -10
-17 0 -31 -4 -31 -10 0 -5 -9 -10 -20 -10 -11 0 -28 -7 -39 -16 -26 -23 -11
-89 29 -127 17 -15 27 -27 23 -28 -5 0 4 -4 18 -9 31 -9 81 -2 73 11 -3 5 1 9
9 9 8 0 17 9 20 20 3 12 14 20 27 20 12 0 28 7 37 16 9 8 22 13 30 10 8 -3 12
-2 9 3 -3 5 9 15 27 22 17 7 37 17 42 21 11 9 119 81 169 113 17 10 33 23 34
27 2 4 8 8 14 8 6 0 24 11 40 26 17 14 37 23 45 20 8 -3 12 -2 9 3 -3 5 1 12
9 15 9 3 18 0 21 -8 10 -27 -6 -67 -49 -120 -35 -43 -47 -52 -57 -43 -10 9
-11 9 -6 0 3 -6 -1 -18 -9 -27 -9 -8 -16 -18 -15 -21 0 -3 -9 -14 -20 -25 -12
-12 -20 -15 -21 -7 0 6 -5 0 -11 -16 -5 -15 -14 -25 -18 -22 -5 3 -17 -7 -26
-22 -10 -15 -32 -42 -48 -59 -17 -17 -51 -54 -76 -82 -25 -29 -51 -52 -58 -52
-7 0 -10 -4 -7 -10 3 -6 1 -10 -5 -10 -6 0 -8 -4 -5 -10 3 -6 -4 -10 -16 -10
-12 0 -20 -3 -16 -6 3 -4 -18 -31 -48 -61 -55 -55 -117 -89 -137 -77 -7 4 -8
3 -4 -4 6 -11 -13 -17 -37 -13 -5 1 -6 -2 -3 -7 3 -5 -5 -14 -18 -21 -17 -9
-22 -21 -22 -45 1 -19 6 -32 11 -29 12 4 91 -77 87 -90 -1 -4 2 -6 7 -3 5 3
14 -1 21 -8 12 -15 53 -18 44 -4 -3 4 3 8 12 8 10 0 15 3 11 6 -7 7 38 101 59
122 8 7 14 18 14 23 0 5 7 9 15 9 8 0 15 5 15 11 0 16 81 90 91 83 5 -3 9 0 9
6 0 10 125 140 135 140 3 0 19 16 36 35 17 19 37 35 45 35 8 0 14 5 14 10 0 6
4 10 9 10 6 0 37 27 70 61 34 34 61 58 61 54 0 -3 19 12 43 34 40 39 77 53 77
30 0 -5 -3 -8 -7 -6 -5 3 -9 -13 -10 -35 0 -23 -7 -45 -15 -49 -7 -5 -10 -9
-6 -9 4 0 -5 -12 -19 -27 -14 -16 -30 -27 -35 -25 -5 1 -7 -2 -4 -7 6 -9 -51
-85 -80 -108 -9 -6 -16 -15 -17 -20 -3 -17 -100 -163 -109 -163 -5 0 -7 -3 -4
-8 2 -4 -6 -29 -19 -56 -17 -35 -21 -55 -15 -71 5 -13 6 -26 2 -31 -4 -4 -2
-5 3 -3 52 24 74 38 98 63 15 15 27 25 27 20 0 -4 7 1 16 12 8 10 13 13 9 7
-3 -7 -1 -13 5 -13 19 0 53 -38 45 -51 -5 -7 -4 -10 2 -6 6 4 20 -8 32 -26 19
-29 19 -33 4 -44 -13 -10 -14 -15 -3 -28 7 -8 16 -12 21 -9 5 3 9 0 9 -6 0 -6
4 -9 8 -6 5 3 4 -10 -2 -29 -6 -19 -14 -35 -18 -35 -13 0 9 -55 23 -55 8 0 20
-4 27 -8 7 -5 12 -3 12 3 0 19 28 40 44 34 9 -3 16 -11 16 -16 0 -6 -8 -4 -17
3 -11 9 -14 10 -9 2 12 -22 44 -34 52 -21 5 7 2 8 -7 3 -12 -7 -12 -5 -1 6 11
12 14 12 22 -1 9 -13 10 -13 10 0 0 13 1 13 10 0 9 -13 11 -13 20 0 8 12 10
10 10 -10 0 -25 1 -25 30 9 17 18 30 29 30 23 0 -7 7 -9 17 -5 11 4 14 3 9 -6
-5 -7 -14 -10 -22 -7 -7 3 -16 2 -18 -3 -8 -13 28 -9 44 5 9 8 21 10 29 5 8
-5 9 -11 3 -15 -5 -3 -20 -37 -33 -76 -12 -38 -26 -70 -30 -70 -7 0 -21 -57
-23 -97 -1 -13 2 -23 6 -23 21 0 60 23 86 50 16 16 34 30 41 30 6 0 10 3 10 8
-3 19 2 33 11 27 6 -3 10 1 10 10 0 10 5 13 12 9 6 -4 8 -3 5 4 -10 15 3 42
19 42 7 0 11 6 8 13 -3 8 8 26 23 42 15 16 22 25 15 21 -8 -5 2 14 21 40 35
50 51 83 49 96 -1 5 2 8 6 8 5 0 19 23 32 50 13 28 29 50 37 50 7 0 13 5 13
11 0 5 4 8 8 5 4 -3 8 5 8 17 -1 29 41 100 54 92 15 -9 5 -61 -10 -57 -11 3
-11 0 0 -12 8 -11 9 -16 1 -16 -6 0 -11 -11 -11 -25 0 -28 -20 -75 -32 -75 -4
0 -7 -3 -7 -7 3 -18 -14 -73 -23 -73 -5 0 -7 -4 -4 -9 4 -5 1 -11 -6 -13 -7
-3 -13 -18 -14 -34 -2 -44 -3 -46 -16 -38 -6 4 -8 3 -4 -4 3 -6 1 -23 -5 -39
-7 -15 -13 -37 -14 -48 -2 -11 -6 -39 -10 -62 -10 -56 0 -93 24 -93 20 0 81
65 81 87 0 7 9 21 21 32 11 10 22 27 23 37 4 24 22 29 30 9 4 -11 2 -14 -7
-10 -6 4 -4 0 6 -8 17 -14 24 -47 9 -47 -5 0 -15 -16 -22 -36 -8 -20 -27 -42
-42 -50 -15 -8 -28 -19 -28 -24 0 -6 -6 -10 -14 -10 -8 0 -18 -9 -21 -20 -3
-11 -13 -20 -22 -20 -9 0 -13 -6 -9 -15 3 -8 1 -15 -4 -15 -13 0 -13 -37 0
-45 6 -4 8 -10 6 -14 -8 -12 117 -65 156 -67 62 -2 75 23 79 146 2 69 61 190
90 185 11 -2 16 1 13 9 -3 8 2 21 11 30 9 9 13 16 8 16 -4 0 -8 16 -9 35 0 18
2 32 5 31 3 -2 7 11 8 29 1 18 10 46 20 61 10 16 17 31 16 34 -1 3 5 14 15 25
9 11 18 29 20 40 5 34 24 75 34 75 6 0 8 -9 5 -20 -3 -11 -1 -20 4 -20 8 0 5
-37 -7 -94 -3 -11 -7 -44 -9 -73 -2 -28 -7 -64 -10 -80 -3 -15 -8 -44 -10 -63
-7 -58 -40 -165 -58 -187 -5 -7 -6 -13 -2 -13 4 0 1 -8 -6 -17 -12 -14 -12
-15 0 -9 9 6 8 1 -3 -16 -9 -14 -13 -28 -9 -31 3 -4 1 -7 -5 -7 -7 0 -11 -3
-10 -7 5 -13 -36 -123 -45 -123 -4 0 -6 -4 -2 -9 3 -5 -1 -16 -9 -24 -8 -8
-12 -17 -9 -21 4 -3 2 -6 -4 -6 -6 0 -13 -9 -16 -20 -3 -11 -12 -20 -21 -20
-9 0 -16 -4 -16 -8 0 -8 -11 -23 -50 -69 -5 -7 -10 -16 -10 -22 0 -5 -6 -12
-12 -14 -7 -3 -2 -6 12 -6 20 -1 22 -3 10 -11 -13 -8 -12 -10 3 -10 9 0 17 -5
17 -11 0 -6 6 -9 13 -6 6 2 24 -2 38 -9 44 -22 129 -37 129 -23 0 5 7 9 15 9
8 0 15 3 16 8 0 4 3 52 5 106 2 56 9 103 15 107 6 3 10 9 10 13 -3 23 0 36 9
31 5 -3 7 0 4 9 -5 13 41 133 56 146 14 12 49 80 38 74 -9 -5 -9 -2 1 9 7 9
11 17 7 17 -4 0 1 11 10 25 9 14 13 25 10 25 -4 0 -1 10 5 22 6 12 14 38 16
57 3 20 10 42 17 50 9 12 8 13 -4 6 -12 -6 -12 -5 -3 5 6 7 19 10 28 7 13 -6
15 -17 10 -64 -4 -32 -11 -76 -17 -98 -6 -22 -12 -58 -14 -80 -7 -117 -55
-332 -73 -328 -6 2 -8 -3 -5 -11 3 -7 -1 -20 -9 -27 -7 -8 -15 -18 -17 -24
-14 -41 -38 -84 -44 -78 -4 4 -4 -1 0 -12 16 -44 47 -59 144 -71 30 -3 51 0
64 9 21 16 27 55 12 76 -9 11 -8 13 2 7 11 -7 12 -4 3 12 -12 22 -15 134 -4
145 3 4 7 17 8 30 3 29 14 87 22 112 7 19 9 31 12 71 0 8 5 13 10 10 5 -4 7 3
4 14 -3 11 -2 28 2 37 4 10 9 25 10 33 13 95 64 333 74 340 3 3 6 10 7 15 2
35 18 65 36 65 11 0 18 -5 15 -12 -2 -7 -10 -12 -16 -10 -7 1 -10 -2 -6 -8 3
-6 10 -8 14 -6 4 3 -1 -27 -11 -67 -9 -40 -19 -110 -20 -157 -2 -47 -7 -88
-13 -92 -6 -5 -6 -8 2 -8 8 0 9 -9 3 -29 -4 -15 -4 -35 1 -42 5 -8 9 -30 9
-50 0 -21 8 -45 19 -58 l19 -21 14 22 c20 32 29 57 34 103 3 22 7 51 11 65 3
14 7 40 10 58 2 18 16 72 32 120 15 48 31 113 35 144 4 32 12 60 17 63 5 4 9
15 9 27 0 13 5 18 14 15 9 -4 16 1 19 11 7 29 10 -175 3 -238 -5 -54 -17 -90
-27 -84 -5 3 -6 -2 -3 -10 3 -8 2 -21 -2 -28 -22 -34 -6 -76 36 -101 30 -18
29 -12 17 -147 -5 -60 -15 -92 -26 -86 -4 3 -8 -5 -8 -17 -1 -12 -8 -26 -16
-32 -7 -5 -17 -19 -22 -30 -33 -81 2 -115 118 -112 67 2 79 5 99 27 13 13 21
29 19 35 -2 5 -5 24 -8 40 -3 17 -9 38 -14 48 -5 9 -7 17 -3 17 3 0 2 6 -3 13
-16 21 -14 77 6 191 20 109 36 151 38 98 0 -15 4 -63 7 -107 4 -44 8 -100 9
-125 2 -25 6 -51 10 -57 5 -8 3 -13 -5 -13 -8 0 -9 -3 -3 -8 12 -8 13 -14 19
-78 5 -47 39 -99 58 -87 6 3 16 21 24 40 9 21 19 31 27 27 9 -5 9 -4 0 7 -17
17 -17 32 0 23 9 -5 9 -4 0 6 -7 8 -9 20 -4 29 4 9 7 51 7 94 -1 47 3 77 9 77
7 0 7 3 0 8 -6 4 -10 18 -10 32 1 14 -1 29 -3 34 -4 7 -6 195 -3 279 1 26 17
39 19 15 0 -7 5 -30 10 -50 7 -25 6 -40 -2 -49 -8 -9 -8 -10 2 -5 12 7 13 5
17 -44 4 -41 15 -112 25 -160 12 -62 24 -142 23 -162 0 -10 4 -15 8 -12 5 3 9
-6 9 -21 0 -36 26 -95 42 -95 14 0 48 20 34 20 -5 0 -4 6 0 13 5 6 9 26 9 42
0 17 5 33 10 37 6 5 6 8 -1 8 -11 0 -11 60 0 79 4 5 2 12 -4 16 -6 4 -7 13 -2
23 9 19 9 29 -2 52 -3 9 -7 70 -9 138 -1 67 -4 122 -8 122 -5 0 -3 83 4 130 8
53 31 130 39 130 5 0 6 6 2 13 -5 9 -4 9 5 1 6 -6 14 -26 16 -45 3 -19 11 -61
19 -94 15 -67 11 -163 -8 -194 -6 -10 -5 -12 2 -7 8 5 12 -1 12 -17 0 -25 35
-61 87 -90 30 -17 32 -17 42 0 7 13 10 14 11 4 0 -9 6 -7 19 8 11 12 28 23 39
24 12 0 20 6 19 12 -1 5 4 9 11 7 8 -1 11 2 7 8 -3 5 -2 10 4 10 14 0 7 93 -7
98 -7 2 -12 11 -12 21 0 9 -9 23 -19 31 -11 7 -18 17 -15 22 3 4 0 8 -6 8 -6
0 -8 5 -5 10 3 6 1 10 -4 10 -6 0 -11 12 -11 26 0 14 4 23 9 20 4 -3 16 3 26
14 18 20 51 28 40 10 -3 -5 -1 -10 4 -10 6 0 11 -6 11 -12 0 -7 11 -40 24 -73
27 -68 66 -182 71 -207 2 -9 7 -25 12 -35 5 -10 8 -27 8 -38 0 -11 3 -23 8
-26 4 -3 9 -16 10 -27 1 -12 4 -22 8 -22 4 0 6 -8 4 -17 -1 -10 0 -22 4 -28 3
-5 6 -21 7 -35 1 -14 3 -29 5 -35 6 -20 -13 -95 -24 -95 -9 0 -9 -2 0 -8 7 -5
9 -20 4 -48 -11 -61 3 -74 78 -74 34 0 70 5 81 12 22 14 29 10 35 -21 2 -14
-2 -24 -11 -28 -13 -5 -13 -7 -2 -14 7 -4 13 -14 14 -21 0 -7 2 -20 2 -28 1
-9 12 -15 26 -15 13 0 22 3 19 8 -4 7 11 10 50 10 9 0 17 4 17 8 0 5 9 9 19 9
11 0 23 5 27 11 3 6 19 9 34 7 27 -4 28 -3 25 35 -1 24 -9 43 -19 49 -9 5 -16
14 -16 19 0 6 -6 17 -12 24 -31 35 -38 45 -31 45 4 0 1 5 -7 10 -11 7 -12 10
-2 10 10 0 9 4 -2 16 -9 8 -14 20 -11 25 4 5 2 9 -4 9 -8 0 -22 40 -27 75 0 6
-6 23 -13 40 -7 16 -13 41 -14 56 -1 15 -6 25 -11 21 -5 -3 -7 4 -4 16 3 12 2
22 -3 24 -4 2 -11 19 -14 38 -10 60 -25 109 -35 115 -6 4 -8 10 -5 15 3 5 -1
22 -9 38 -8 16 -12 32 -9 36 4 3 1 6 -6 6 -7 0 -9 5 -6 10 3 6 1 10 -5 10 -6
0 -8 5 -5 10 4 6 1 17 -5 25 -7 8 -10 21 -7 29 3 7 -1 23 -9 35 -8 12 -12 26
-9 31 3 6 0 10 -7 10 -10 0 -10 2 1 9 10 7 11 9 0 13 -10 3 -9 11 4 36 8 18
11 30 6 27 -5 -4 -9 3 -9 14 0 12 -4 21 -10 21 -5 0 -9 11 -8 24 2 19 5 22 15
14 7 -6 13 -18 13 -27 0 -9 7 -25 15 -35 11 -15 12 -23 3 -33 -8 -10 -7 -12 5
-8 14 6 25 -11 33 -50 6 -32 11 -41 27 -60 10 -11 16 -30 14 -42 -3 -16 1 -23
11 -23 8 0 12 -3 9 -7 -4 -3 -2 -11 3 -18 5 -6 11 -21 13 -32 2 -12 8 -27 14
-35 5 -7 13 -25 17 -40 3 -15 13 -33 21 -42 8 -8 16 -26 17 -40 1 -14 6 -26
10 -26 5 0 20 -32 23 -50 0 -3 4 -11 9 -19 5 -8 10 -44 12 -80 5 -104 8 -131
15 -131 4 0 10 -8 14 -19 7 -24 57 -21 113 8 22 11 42 18 46 16 3 -3 4 -2 1 1
-2 4 1 12 8 20 32 36 36 43 26 46 -5 2 -11 13 -12 25 0 12 -4 20 -8 18 -9 -6
-40 30 -32 38 3 4 1 7 -6 7 -16 0 -42 26 -34 34 4 3 0 6 -7 6 -7 0 -10 3 -7 7
4 3 0 14 -8 23 -8 9 -16 29 -17 43 -1 15 -6 27 -11 27 -4 0 -6 4 -3 9 3 4 -3
19 -14 31 -11 13 -20 26 -21 29 -6 45 -12 66 -22 76 -7 7 -13 25 -12 41 0 16
-3 32 -8 35 -7 5 -28 71 -42 131 -2 9 -9 26 -15 38 -6 12 -13 29 -15 38 -2 9
-17 55 -34 101 -24 70 -27 87 -16 98 16 15 39 18 30 3 -3 -6 -1 -10 5 -10 7 0
9 -7 6 -16 -3 -8 -2 -13 3 -10 5 3 14 -1 21 -9 7 -8 9 -15 4 -15 -4 0 0 -6 11
-13 10 -8 15 -19 11 -26 -4 -6 -4 -10 1 -9 4 2 9 -1 10 -5 1 -4 12 -17 25 -27
13 -11 19 -19 15 -20 -5 0 5 -12 22 -26 17 -14 29 -29 27 -32 -2 -4 9 -7 24
-7 16 -1 27 2 24 6 -2 4 3 12 12 17 15 8 15 10 -1 16 -15 5 -15 9 -4 23 10 12
10 14 2 9 -9 -5 -13 -1 -13 11 0 10 -15 46 -33 79 -19 34 -33 71 -32 82 1 12
-2 19 -7 16 -4 -3 -8 0 -8 5 0 19 28 12 35 -9 3 -11 11 -20 16 -20 6 0 7 -4 4
-10 -3 -6 1 -10 9 -10 9 0 16 -4 16 -9 0 -5 6 -16 13 -23 7 -7 35 -42 62 -78
27 -36 54 -68 60 -72 5 -4 7 -8 3 -8 -5 0 0 -8 10 -18 29 -32 52 -62 46 -62
-3 0 2 -7 10 -16 9 -8 17 -29 17 -45 2 -36 2 -35 23 -85 16 -39 48 -64 81 -64
8 0 21 -13 30 -30 9 -17 13 -30 9 -30 -3 0 4 -8 16 -18 29 -23 58 -105 62
-172 1 -8 5 -18 10 -21 5 -3 10 -20 11 -38 2 -31 3 -32 44 -29 27 2 61 16 102
42 33 22 59 42 56 44 -2 3 2 14 10 25 13 18 11 23 -22 54 -20 18 -41 33 -46
33 -4 0 -6 4 -3 9 3 5 -5 12 -18 15 -22 5 -102 100 -108 127 -2 8 -9 20 -15
27 -7 7 -13 20 -13 29 0 9 22 -7 54 -39 30 -29 52 -55 51 -58 -2 -3 10 -7 26
-8 16 -1 29 1 30 5 5 44 4 73 -1 73 -11 0 -42 88 -35 100 3 5 0 7 -9 4 -10 -4
-16 4 -21 25 -4 17 -11 31 -16 31 -6 0 -7 5 -4 10 3 6 1 10 -5 10 -6 0 -9 4
-6 9 3 4 -3 19 -14 31 -11 13 -20 29 -20 36 0 7 -6 17 -14 21 -7 4 -21 23 -31
42 -9 19 -26 43 -36 54 -17 19 -24 38 -20 60 0 4 -6 7 -14 7 -13 0 -17 6 -14
27 0 3 -6 10 -15 15 -9 5 -26 28 -37 51 -12 23 -26 45 -31 48 -6 4 -12 36 -15
73 -6 65 -5 66 18 66 14 0 31 -9 39 -20 8 -11 20 -20 28 -20 7 0 11 -4 8 -8
-2 -4 13 -27 35 -50 21 -24 39 -47 39 -52 0 -6 6 -10 13 -10 11 0 41 -36 42
-51 0 -11 70 -69 82 -69 7 0 13 -4 13 -9 0 -13 56 -71 70 -71 6 0 8 -4 5 -10
-4 -6 8 -10 30 -10 34 0 35 1 28 27 -4 16 -7 38 -8 50 0 11 -3 19 -7 16 -5 -2
-13 7 -20 21 -6 14 -15 26 -20 26 -5 0 -7 4 -3 9 3 5 0 13 -6 16 -5 4 -8 13
-5 21 3 8 0 13 -7 11 -7 -1 -11 4 -10 11 2 6 -2 12 -7 12 -6 0 -10 7 -10 16 0
8 -7 22 -15 31 -16 16 -12 49 8 68 7 7 8 6 3 -2 -11 -20 3 -36 20 -22 7 6 12
15 9 19 -3 5 -1 11 5 15 10 6 14 -7 11 -31 -1 -7 5 -14 13 -17 7 -3 13 0 12 6
0 7 4 13 9 15 6 1 10 -4 11 -10 1 -19 -16 -37 -29 -34 -7 1 -9 1 -5 -1 4 -2 4
-12 1 -21 -4 -12 0 -10 14 5 14 16 23 19 30 12 8 -8 14 -5 22 10 7 12 16 21
22 21 6 0 7 -4 4 -10 -3 -5 2 -10 12 -10 15 0 16 -2 3 -10 -13 -8 -12 -10 3
-10 9 0 17 -4 17 -10 0 -5 3 -9 8 -9 22 4 42 -2 37 -11 -3 -5 1 -10 9 -10 9 0
16 -4 16 -10 0 -5 5 -10 10 -10 6 0 21 -10 34 -22 12 -13 34 -32 49 -42 14
-11 23 -24 21 -28 -3 -5 -2 -8 3 -7 15 4 43 -13 37 -22 -3 -5 1 -6 8 -4 8 3
23 -3 34 -13 44 -41 104 -57 104 -27 0 19 -21 65 -31 65 -4 0 -10 11 -13 25
-4 14 -11 23 -15 20 -5 -3 -15 8 -23 25 -7 16 -18 30 -25 30 -6 0 -15 9 -18
20 -3 11 -12 20 -19 20 -22 0 -33 42 -21 79 7 20 15 29 19 23 10 -17 13 -81 4
-86 -5 -2 -3 -3 4 -2 7 2 12 10 10 19 -2 11 2 15 13 11 8 -3 15 -10 15 -15 0
-5 4 -9 10 -9 5 0 9 3 9 8 -3 19 2 22 16 8 9 -9 15 -24 13 -33 -2 -13 5 -19
25 -21 15 -2 25 -8 22 -13 -4 -5 -1 -9 5 -9 6 0 8 -4 5 -10 -3 -5 -1 -10 6
-10 7 0 10 -3 6 -6 -3 -4 -1 -12 6 -20 7 -7 18 -20 25 -29 9 -11 26 -15 52
-12 37 4 55 13 90 46 12 12 15 12 18 0 7 -21 44 -49 68 -49 33 0 124 110 124
150 0 28 -18 60 -33 60 -7 0 -12 11 -12 24 0 18 5 24 20 23 23 -2 56 -32 47
-43 -4 -4 -1 -4 6 0 7 4 10 12 6 17 -3 5 -1 16 6 24 8 10 8 15 -1 21 -7 4 -9
3 -6 -3 4 -6 0 -16 -8 -23 -19 -16 -19 -7 2 33 9 18 18 26 20 20 7 -20 33 -15
30 5 -1 10 -13 32 -25 49 -38 54 -24 50 32 -9 46 -47 55 -53 59 -37 3 10 1 19
-5 19 -5 0 -6 5 -3 10 3 6 0 13 -9 16 -15 6 -11 34 6 34 5 0 7 -4 3 -9 -7 -12
35 -42 47 -35 4 3 5 11 1 17 -4 7 2 5 12 -3 17 -14 18 -13 11 5 -14 37 -17 50
-5 28 7 -13 16 -23 21 -23 11 0 10 17 -2 25 -13 8 -13 25 1 25 5 0 8 -4 5 -9
-6 -9 54 -25 62 -16 3 3 -2 5 -11 5 -11 0 -14 5 -10 17 5 12 3 14 -7 8 -8 -5
-11 -3 -8 6 3 8 -1 22 -10 32 -8 9 -12 20 -8 24 4 4 11 1 16 -7 6 -8 10 -11
10 -7 0 5 7 1 16 -7 16 -16 34 -13 34 5 0 6 -5 7 -12 3 -8 -5 -9 -2 -5 10 4
10 7 23 7 29 1 7 6 6 13 -4 17 -22 48 -32 40 -14 -3 8 -9 13 -13 10 -16 -10
-20 14 -5 29 9 8 16 18 15 21 -1 21 1 25 10 20 6 -3 10 0 10 7 0 8 3 9 8 3 4
-5 18 -19 31 -30 l24 -20 -14 25 c-8 14 -20 29 -26 33 -7 4 -13 15 -13 23 0 8
4 13 8 10 4 -2 7 12 6 32 -1 20 -2 37 -3 37 -1 0 -4 14 -6 32 -4 28 -2 31 20
28 14 -1 25 2 25 6 0 5 -7 9 -15 9 -9 0 -26 10 -38 21 -12 12 -16 19 -9 15 7
-4 26 -12 43 -16 26 -8 29 -7 19 5 -10 12 -8 13 9 10 29 -5 16 21 -19 37 -16
7 -26 16 -23 21 3 4 15 1 28 -7 18 -12 25 -12 28 -3 3 8 10 6 22 -8 9 -11 14
-14 10 -7 -3 6 0 12 7 13 7 1 22 2 33 3 11 0 25 -8 32 -19 7 -11 12 -14 13 -7
0 6 7 12 15 12 8 0 15 7 15 15 0 9 -9 15 -25 15 -14 0 -28 7 -31 15 -4 8 -10
13 -14 10 -5 -3 -12 -1 -15 5 -4 7 8 10 35 8 23 -1 44 -6 47 -11 3 -5 10 -3
15 4 7 11 11 11 15 2 7 -18 23 -16 23 2 0 8 -3 14 -7 13 -5 0 -28 8 -53 20
l-45 20 39 -5 c28 -5 37 -3 32 5 -5 9 0 9 18 2 17 -6 27 -6 32 2 4 6 3 8 -3 5
-6 -4 -20 5 -33 18 -13 13 -26 23 -29 21 -3 -2 -15 0 -26 5 -17 6 -16 8 10 9
17 2 35 2 42 1 23 -3 22 16 -3 28 -15 7 -22 16 -18 23 5 7 2 9 -8 5 -11 -4
-15 0 -14 11 2 9 8 18 14 20 7 2 12 11 11 20 0 11 -2 13 -6 4 -4 -10 -8 -10
-20 0 -8 7 -27 14 -41 16 -47 6 -59 20 -18 20 42 0 57 9 37 21 -10 6 -10 13
-2 28 5 11 7 23 4 27 -3 3 1 6 10 6 19 0 23 15 5 26 -7 5 -8 3 -3 -6 6 -9 4
-11 -4 -5 -9 5 -10 10 -2 18 6 6 11 16 11 22 0 5 -5 3 -10 -5 -6 -10 -10 -11
-10 -2 0 6 -5 12 -11 12 -5 0 -7 -5 -3 -12 4 -6 3 -8 -4 -4 -6 3 -11 14 -11
24 -1 31 -1 52 0 65 1 6 -2 21 -6 32 -5 16 -5 17 4 5 7 -9 11 -10 11 -3 0 20
-13 22 -53 8 -20 -7 -37 -9 -37 -4 0 5 7 9 16 9 14 0 14 2 3 16 -8 10 -15 12
-17 5 -2 -6 -11 -11 -20 -11 -14 1 -12 5 7 21 13 11 29 18 35 16 7 -3 12 7 12
23 1 16 -4 27 -12 27 -7 0 -10 -5 -7 -10 3 -6 1 -7 -5 -3 -7 4 -12 3 -12 -2 0
-5 -7 -9 -15 -9 -12 0 -11 5 5 19 11 11 17 24 13 31 -4 7 2 5 12 -3 11 -9 16
-10 11 -2 -5 8 2 15 18 22 26 9 36 30 15 30 -5 0 -7 -5 -3 -12 5 -8 2 -9 -9
-5 -10 3 -17 2 -17 -4 0 -6 -5 -7 -11 -4 -6 4 -8 13 -5 21 3 7 -2 20 -10 28
-13 13 -12 16 4 25 11 6 23 7 27 3 5 -4 5 -2 2 4 -4 7 -1 17 7 23 11 9 15 9
18 -1 3 -7 7 -4 10 8 4 18 2 20 -14 16 -11 -2 -22 -11 -25 -18 -3 -8 -9 -14
-15 -14 -5 0 -7 4 -4 9 4 5 -5 4 -18 -2 -13 -7 -23 -14 -21 -18 2 -3 -2 -6
-10 -6 -23 0 -17 23 10 41 14 9 25 14 25 11 0 -3 9 -1 20 5 11 6 17 16 14 25
-4 11 -11 12 -24 5 -9 -5 -20 -6 -24 -3 -3 3 -6 2 -6 -4 0 -15 -36 -23 -48
-11 -16 16 -3 39 16 29 12 -6 23 -2 37 12 l20 20 -25 -6 c-25 -6 -25 -6 -5 11
12 9 27 25 33 34 11 14 10 16 -11 14 -13 -2 -38 -10 -55 -18 -29 -15 -30 -15
-19 2 6 10 15 16 19 14 4 -3 8 2 8 10 0 9 6 16 13 16 8 0 14 6 14 14 0 14 -21
16 -33 3 -15 -15 -25 -6 -19 16 5 16 4 18 -4 8 -8 -12 -12 -13 -25 -1 -14 11
-16 10 -10 -4 3 -9 1 -16 -6 -16 -6 0 -8 5 -5 10 3 6 0 10 -7 10 -7 1 -4 6 8
13 12 7 19 17 17 22 -2 6 5 11 14 12 35 3 48 8 62 26 11 16 10 21 -7 38 -12
10 -28 19 -37 19 -8 0 -15 4 -15 9 0 4 -8 8 -17 8 -36 0 -44 3 -37 14 4 8 0 9
-15 4 -13 -4 -21 -2 -21 5 0 6 -4 9 -9 6 -5 -4 -12 0 -14 6 -4 10 -6 10 -6 1
-1 -14 -31 -18 -31 -4 0 5 -9 11 -20 14 -11 3 -20 12 -20 21 0 9 -7 16 -15 16
-8 0 -15 -4 -15 -9 0 -9 -12 -9 -65 -2 -6 1 -6 4 1 9 6 4 16 21 22 39 9 28 9
31 -6 26 -21 -7 -56 -43 -65 -65 -3 -10 -14 -18 -22 -18 -15 0 -15 2 -2 15 9
8 20 30 27 49 10 32 14 34 68 39 31 3 67 7 79 10 13 3 25 1 29 -4 3 -6 10 -6
17 -1 7 5 21 7 32 5 28 -6 34 -6 80 1 57 8 147 -27 127 -50 -4 -5 1 -2 11 5
11 9 17 10 17 2 0 -6 5 -11 11 -11 5 0 7 6 3 13 -5 7 -1 6 10 -2 16 -14 27
-15 84 -12 10 1 19 7 20 14 1 6 6 32 12 57 16 68 19 90 11 90 -4 0 -14 18 -21
40 -13 41 -14 41 -62 39 -26 -2 -48 -6 -48 -11 0 -4 -9 -8 -20 -8 -11 0 -35
-9 -54 -19 -32 -18 -55 -20 -295 -20 -144 0 -261 4 -261 8 0 4 -15 6 -32 4
-32 -3 -32 -3 -8 8 25 11 49 16 103 21 15 1 27 7 27 13 1 5 10 -1 20 -14 11
-13 20 -19 20 -14 0 5 -6 15 -12 22 -11 11 -9 13 10 8 12 -3 22 -2 22 3 0 4
10 8 23 8 12 0 51 5 87 12 36 6 88 14 115 19 28 4 56 10 62 14 6 4 43 8 82 8
39 1 71 4 71 8 0 4 21 9 46 10 26 0 50 3 54 6 5 3 16 -2 24 -11 11 -11 16 -12
16 -3 0 10 3 10 12 1 7 -7 27 -12 45 -12 22 0 33 -5 33 -15 0 -12 4 -13 28 -2
15 6 30 16 34 21 9 13 2 133 -10 173 -6 17 -8 34 -4 37 3 3 -7 6 -21 6 -25 0
-64 -16 -77 -31 -3 -3 -18 -11 -35 -16 -16 -6 -39 -14 -49 -19 -14 -5 -17 -4
-11 5 5 8 -1 7 -16 -3 -17 -10 -54 -16 -121 -18 -53 -2 -94 -6 -91 -10 2 -5
-1 -8 -6 -8 -6 0 -11 6 -11 13 0 9 -2 9 -8 1 -4 -7 -45 -14 -98 -16 -49 -3
-96 -8 -102 -12 -7 -4 -12 -2 -12 6 0 10 -2 10 -9 -1 -6 -9 -10 -10 -16 -2 -5
9 -11 9 -22 0 -12 -10 -16 -10 -24 2 -6 10 -9 10 -9 2 0 -8 -13 -13 -33 -13
-18 0 -39 6 -46 13 -11 10 -13 10 -7 0 5 -9 0 -13 -14 -13 -12 0 -19 4 -16 9
4 5 -2 8 -11 6 -10 -2 -18 -4 -18 -5 0 -1 -8 -3 -18 -5 -9 -2 -15 1 -11 6 3 5
0 9 -5 9 -6 0 -11 -4 -11 -8 0 -5 -7 -9 -15 -9 -8 0 -12 4 -9 9 3 4 0 8 -5 8
-6 0 -11 -6 -11 -12 0 -9 -4 -8 -10 2 -6 10 -10 11 -10 3 0 -7 -7 -13 -16 -13
-9 0 -12 5 -8 13 5 8 2 8 -9 -2 -11 -9 -17 -10 -17 -2 0 6 -6 11 -14 11 -15 0
-33 18 -38 40 -2 8 -10 22 -19 33 -18 20 -19 63 -1 60 6 -2 9 3 7 10 -6 13
107 57 148 57 14 0 28 7 31 16 4 10 14 14 26 11 11 -3 18 -2 15 3 -6 10 43 23
57 14 7 -4 8 -3 4 4 -5 8 1 12 14 12 12 0 30 5 40 10 10 6 30 11 44 12 15 1
26 5 26 9 0 12 75 16 83 5 6 -7 7 -4 3 7 -4 13 0 17 17 17 13 0 27 4 33 9 11
10 88 36 91 30 1 -2 8 5 16 15 9 12 19 16 27 11 9 -5 11 -4 6 3 -4 6 -2 21 4
32 10 18 8 20 -27 22 -21 1 -69 0 -107 -1 -66 -3 -69 -2 -63 18 3 11 1 24 -4
27 -5 3 -9 11 -8 17 2 13 -7 42 -22 70 -8 14 -4 18 21 23 16 4 30 11 30 16 0
6 7 8 15 5 8 -4 17 -2 20 4 4 5 11 7 16 4 5 -4 9 -1 9 4 0 6 8 11 18 11 10 0
23 5 29 11 6 6 50 10 107 10 131 -1 149 10 143 89 -2 31 -6 61 -10 66 -9 16 9
38 24 29 8 -5 11 -5 7 0 -4 4 -1 13 6 20 15 15 14 38 -3 80 -7 17 -13 38 -14
48 -1 9 -5 17 -10 17 -5 0 -3 8 4 17 10 12 10 14 1 9 -7 -4 -15 -1 -18 8 -7
18 -49 22 -59 6 -4 -6 -10 -8 -15 -5 -4 3 -10 -4 -13 -15 -3 -11 -13 -23 -24
-27 -24 -9 -44 -29 -36 -37 4 -3 -6 -6 -21 -6 -16 0 -25 -4 -21 -10 3 -5 5
-10 3 -10 -2 0 -34 -11 -73 -25 -38 -14 -75 -23 -83 -20 -7 2 -11 1 -7 -4 6
-11 -194 -91 -235 -94 -17 -1 -30 -4 -30 -7 0 -5 -81 -33 -105 -36 -5 -1 -14
-3 -20 -4 -5 -1 -13 -2 -17 -1 -5 0 -8 -3 -8 -9 0 -5 -16 -12 -35 -16 -19 -3
-35 -10 -35 -15 0 -5 -7 -9 -15 -9 -9 0 -29 -7 -45 -15 -25 -13 -30 -13 -30
-1 0 12 19 26 40 30 3 1 12 6 20 11 8 5 21 10 29 12 46 6 203 114 219 149 23
48 -22 59 -123 29 -33 -10 -68 -18 -77 -19 -9 0 -15 -2 -13 -5 6 -6 -42 -30
-70 -35 -13 -2 -33 -10 -45 -16 -12 -6 -28 -9 -36 -6 -9 3 -12 1 -9 -4 3 -6 1
-11 -4 -11 -14 -2 -22 -4 -41 -12 -18 -7 -38 -10 -64 -8 -13 1 -17 6 -13 21 3
11 1 23 -4 26 -5 3 -6 11 -2 17 4 7 8 20 9 30 1 9 2 21 3 26 2 16 73 81 88 81
8 0 21 7 30 16 9 8 22 13 30 10 8 -3 11 -1 8 4 -3 6 1 10 9 10 9 0 16 4 16 8
0 8 60 36 73 33 4 0 7 3 7 9 0 5 17 19 38 30 50 27 72 42 96 63 11 10 26 15
34 12 7 -2 11 -1 7 4 -6 10 46 51 64 51 6 0 11 4 11 8 0 5 18 21 39 38 71 53
71 104 -1 83 -16 -4 -29 -8 -31 -8 -4 0 -40 -12 -72 -24 -16 -7 -34 -11 -38
-9 -5 1 -6 -1 -3 -6 3 -5 -11 -15 -30 -22 -19 -8 -42 -22 -51 -32 -9 -10 -24
-18 -35 -18 -10 0 -18 -5 -18 -11 0 -6 -9 -9 -20 -6 -11 3 -20 1 -20 -3 0 -9
-44 -27 -46 -19 0 2 -8 -4 -18 -14 -10 -9 -22 -15 -27 -12 -5 4 -9 1 -9 -4 0
-6 -3 -10 -7 -9 -5 1 -28 -9 -53 -22 -43 -22 -90 -34 -90 -23 0 3 11 16 26 29
14 13 22 24 18 24 -4 0 10 14 31 30 21 17 74 63 118 103 44 39 85 77 91 82 25
22 95 55 118 55 30 0 88 28 104 49 7 8 11 28 10 43 -1 17 3 28 11 28 7 0 13 4
13 9 0 9 42 26 86 36 10 2 34 8 52 14 17 5 32 8 32 5 0 -2 8 4 18 14 18 17 18
57 1 68 -5 3 -9 14 -9 25 0 10 -4 19 -8 19 -5 0 -17 16 -28 35 -10 19 -24 35
-31 35 -7 0 -13 5 -13 10 0 21 -36 8 -62 -22 -15 -18 -28 -36 -28 -40 0 -5 -7
-8 -15 -8 -8 0 -14 -3 -14 -7 3 -20 -2 -34 -11 -28 -5 3 -10 1 -10 -5 0 -6 -7
-19 -16 -28 -18 -18 -86 -20 -92 -3 -5 15 -33 13 -56 -4 -11 -8 -16 -15 -12
-15 4 0 0 -7 -8 -16 -9 -8 -20 -13 -26 -9 -6 3 -7 -1 -4 -10 14 -36 -56 -131
-123 -165 -15 -8 -37 -23 -47 -32 -11 -10 -26 -18 -33 -18 -7 0 -13 -4 -13
-10 0 -5 -7 -10 -15 -10 -8 0 -15 -4 -15 -10 0 -5 -4 -10 -10 -10 -5 0 -20
-10 -33 -22 -42 -41 -67 -58 -83 -58 -9 0 -12 -5 -8 -12 5 -8 0 -7 -12 2 -26
21 -34 32 -27 44 3 5 1 6 -4 3 -6 -4 -22 2 -34 14 -17 15 -20 22 -11 26 18 7
67 53 57 53 -4 0 4 9 19 21 14 11 31 17 37 13 7 -4 9 -3 5 4 -8 13 178 202
199 202 9 0 12 6 9 15 -5 11 1 15 20 15 14 0 26 5 26 10 0 6 9 10 19 10 11 0
23 5 26 10 3 6 14 10 25 10 24 0 35 45 18 84 -19 45 -75 91 -114 91 -18 1 -31
-2 -29 -6 3 -3 -7 -12 -20 -19 -13 -7 -22 -16 -20 -21 3 -4 -2 -14 -10 -23 -9
-8 -16 -19 -17 -23 -2 -23 -20 -54 -33 -59 -8 -4 -15 -11 -15 -16 0 -16 -63
-77 -73 -71 -6 3 -7 1 -3 -5 4 -7 3 -12 -2 -12 -6 0 -35 -25 -66 -55 -31 -31
-56 -53 -56 -50 0 3 -15 -9 -34 -27 -61 -60 -115 -103 -126 -100 -5 1 -10 -5
-10 -13 0 -8 -7 -15 -15 -15 -8 0 -15 -4 -15 -10 0 -5 -5 -10 -11 -10 -5 0 -7
5 -4 10 3 6 2 10 -3 10 -10 0 -6 91 5 99 12 9 45 71 38 71 -3 0 -1 9 5 20 6
11 15 18 21 15 5 -4 8 -1 7 7 -2 7 3 12 10 10 8 -1 11 2 8 7 -4 5 1 16 9 24 8
9 15 21 15 27 0 6 5 8 10 5 6 -3 10 -1 10 5 0 5 12 24 28 40 43 48 53 60 48
60 -3 0 5 10 17 23 12 13 25 22 29 20 4 -2 5 2 3 10 -3 7 25 45 66 88 39 40
70 75 69 77 -2 5 59 72 65 72 3 0 19 14 35 30 16 17 40 30 52 30 13 0 29 9 35
19 7 11 23 21 35 23 13 2 22 9 20 17 -1 7 3 19 9 27 9 11 8 14 -1 14 -8 0 -10
3 -7 6 4 4 -3 16 -16 26 -12 11 -34 30 -49 44 -15 13 -32 24 -38 24 -5 0 -10
4 -10 9 0 5 -13 3 -30 -5 -16 -9 -30 -22 -30 -30 0 -8 -4 -12 -10 -9 -5 3 -10
-2 -10 -12 0 -10 -7 -28 -15 -39 -8 -12 -11 -24 -8 -28 3 -3 -1 -6 -10 -6 -10
0 -16 -3 -16 -7 4 -24 -3 -35 -17 -29 -9 3 -12 2 -9 -5 8 -13 -14 -41 -26 -33
-5 3 -8 1 -7 -4 5 -14 -63 -92 -75 -85 -5 3 -7 1 -3 -5 7 -12 -33 -44 -45 -36
-4 2 -11 -1 -15 -7 -4 -8 -3 -9 4 -5 7 4 12 2 12 -4 0 -17 -26 -40 -47 -40
-12 0 -14 -3 -6 -8 9 -6 7 -13 -10 -27 -12 -11 -26 -18 -30 -17 -5 1 -6 -1 -3
-6 6 -10 -67 -82 -83 -82 -6 0 -11 -6 -11 -12 0 -16 -73 -88 -89 -88 -7 0 -9
-5 -5 -12 5 -8 2 -9 -9 -5 -10 4 -16 2 -14 -5 1 -7 -6 -13 -15 -15 -22 -5 -13
32 12 50 9 7 18 17 19 22 2 12 39 61 69 91 12 13 22 28 22 33 0 6 6 14 13 18
8 4 18 15 23 24 12 21 110 143 178 219 7 8 21 27 31 42 9 15 22 25 28 21 6 -3
7 -1 3 5 -6 10 35 56 52 58 20 2 41 17 36 25 -3 5 4 9 15 9 12 0 21 4 21 8 0
5 11 14 24 22 23 12 33 50 13 50 -4 0 -5 5 -2 10 3 6 1 10 -5 10 -6 0 -22 11
-35 24 -41 42 -91 76 -109 76 -33 0 -64 -50 -85 -134 -7 -27 -22 -62 -34 -78
-44 -57 -135 -147 -142 -140 -5 4 -5 2 -2 -4 4 -7 -30 -50 -76 -97 -45 -48
-93 -100 -106 -117 -14 -19 -32 -30 -48 -30 -16 0 -22 4 -17 12 5 8 2 9 -9 5
-16 -6 -16 -4 -1 25 9 18 23 38 30 46 8 7 19 22 24 33 6 10 18 19 26 19 8 0
12 -5 9 -10 -4 -6 -1 -9 7 -8 7 2 12 -3 10 -9 -1 -7 2 -13 7 -13 6 0 9 9 8 19
0 11 -5 19 -10 18 -23 -5 -15 23 10 37 25 13 81 63 109 98 12 16 8 33 -18 71
-11 15 -16 27 -11 27 4 0 -4 8 -20 18 -15 10 -24 22 -20 26 4 4 0 4 -10 0 -10
-3 -19 -1 -22 7 -6 17 -85 24 -85 8 0 -6 -7 -9 -14 -6 -10 4 -13 1 -9 -9 3 -8
-1 -14 -9 -14 -10 0 -13 10 -10 34 6 50 -18 52 -71 5 -25 -21 -50 -39 -56 -39
-6 0 -10 -3 -10 -7 4 -23 -3 -33 -23 -33 -19 0 -20 -2 -8 -10 10 -6 11 -10 3
-10 -7 0 -13 -6 -13 -14 0 -7 -11 -22 -25 -32 -13 -10 -27 -31 -30 -46 -4 -15
-13 -28 -21 -28 -9 0 -13 -4 -9 -10 3 -5 -3 -18 -15 -30 -11 -11 -20 -23 -20
-27 0 -5 -6 -15 -14 -25 -8 -9 -12 -19 -9 -22 3 -3 -2 -8 -11 -12 -9 -3 -14
-9 -12 -13 3 -4 -6 -20 -20 -36 -13 -15 -24 -32 -24 -37 0 -4 -9 -8 -20 -8
-22 0 -18 22 10 55 10 11 20 36 23 55 3 20 19 65 36 101 17 36 31 75 31 86 0
11 7 26 15 33 8 7 12 16 9 21 -3 5 -1 9 3 9 7 0 31 73 35 108 1 6 5 12 10 12
4 0 13 20 19 45 6 25 16 45 22 45 6 0 8 3 5 6 -3 3 3 31 14 62 26 75 29 92 22
125 -6 31 -21 34 -49 9 -26 -23 -65 -78 -65 -92 0 -5 -4 -10 -10 -10 -5 0 -10
-7 -10 -15 0 -8 -4 -15 -10 -15 -5 0 -10 -7 -10 -15 0 -8 -4 -15 -10 -15 -5 0
-9 -3 -8 -7 3 -14 -25 -63 -35 -63 -6 0 -8 -3 -4 -6 3 -4 -3 -24 -14 -45 -11
-22 -16 -39 -13 -39 4 0 -3 -9 -16 -20 -13 -11 -20 -20 -16 -20 4 0 -4 -17
-18 -37 -14 -20 -23 -40 -20 -45 3 -4 -2 -8 -10 -8 -8 0 -17 -9 -21 -19 -3
-12 -14 -19 -25 -18 -23 1 -25 10 -7 29 6 7 13 21 15 32 6 33 22 67 29 63 5
-3 9 9 10 25 1 17 8 36 14 44 6 8 9 14 5 14 -4 0 1 15 11 33 9 17 18 37 19 42
1 6 11 44 23 85 28 98 28 146 0 161 -15 8 -19 8 -15 0 4 -6 3 -11 -2 -11 -5 0
-15 -11 -22 -25 -7 -13 -17 -22 -22 -19 -5 3 -7 2 -6 -3 1 -4 -3 -17 -9 -28
-7 -11 -21 -36 -32 -55 -12 -19 -28 -52 -37 -72 -9 -21 -21 -38 -27 -38 -6 0
-8 -3 -4 -6 9 -10 -16 -31 -57 -48 -42 -18 -46 -12 -11 16 14 11 23 24 20 29
-4 5 -1 9 6 9 7 0 9 3 6 6 -4 4 -14 1 -23 -7 -16 -13 -17 -12 -11 11 4 14 7
28 7 32 0 4 6 5 13 2 8 -3 14 1 14 8 1 7 7 27 14 45 26 64 -26 123 -107 123
-57 -1 -83 -4 -82 -10 0 -3 -1 -8 -2 -12 -4 -13 -7 -27 -9 -39 0 -5 -6 -7 -13
-3 -7 4 -8 3 -4 -5 10 -15 -1 -61 -14 -61 -5 0 -7 12 -4 26 4 22 2 25 -13 20
-9 -4 -14 -4 -10 0 4 4 2 13 -4 20 -12 14 -19 124 -9 124 9 0 0 52 -12 67 -9
12 -50 14 -43 2 3 -3 -4 -15 -15 -26 -10 -12 -17 -23 -14 -26 2 -2 -2 -9 -9
-16 -15 -12 -51 -5 -42 8 2 4 -9 6 -24 3 -16 -2 -32 1 -36 9 -6 8 -4 10 6 4
12 -8 12 -6 0 8 -8 11 -9 17 -3 17 6 0 9 7 6 15 -3 8 -2 20 2 26 4 7 9 27 10
43 4 55 25 130 44 162 11 17 17 34 13 37 -3 4 1 7 10 7 10 0 17 3 16 8 -2 12
13 52 20 52 3 0 6 14 6 30 0 17 -4 30 -8 30 -5 0 -5 5 -2 10 4 6 3 10 -2 8 -4
-1 -39 2 -78 7 -91 11 -113 12 -125 5z m-355 -759 c-6 -5 -25 10 -25 20 0 5 6
4 14 -3 8 -7 12 -15 11 -17z m1495 -221 c0 -5 -4 -10 -10 -10 -5 0 -10 5 -10
10 0 6 5 10 10 10 6 0 10 -4 10 -10z m-26 -64 c7 -30 -2 -58 -17 -49 -6 3 -7
1 -3 -5 7 -13 -23 -72 -36 -72 -4 0 -8 -6 -8 -14 0 -7 -12 -22 -27 -31 -16
-10 -22 -12 -15 -4 6 7 12 21 12 31 0 10 4 18 9 18 9 0 22 27 27 57 1 7 9 20
18 29 14 14 21 35 17 57 -3 19 18 4 23 -17z m-2894 -26 c6 -11 8 -20 4 -20 -3
0 1 -11 10 -24 11 -18 13 -27 4 -32 -6 -4 -8 -3 -5 3 4 6 0 14 -9 17 -9 4 -14
9 -11 13 4 3 0 15 -8 27 -8 11 -15 24 -15 28 0 16 20 8 30 -12z m2422 -7 c-12
-20 -42 -26 -42 -8 0 8 10 16 23 18 12 2 23 5 25 6 2 0 -1 -7 -6 -16z m-1942
-55 c0 -18 -2 -20 -9 -8 -6 8 -7 18 -5 22 9 14 14 9 14 -14z m-1365 2 c7 -12
-2 -12 -30 0 -19 8 -19 9 2 9 12 1 25 -3 28 -9z m-39 -77 c-10 -10 -19 5 -10
18 6 11 8 11 12 0 2 -7 1 -15 -2 -18z m-776 -1076 c0 -4 16 -5 37 -3 55 7 95
-3 88 -23 -5 -12 -3 -13 5 -5 13 13 63 6 54 -7 -3 -5 4 -9 15 -9 30 0 131 -52
124 -63 -3 -6 -2 -7 4 -4 11 7 63 -14 63 -25 0 -5 8 -8 19 -8 10 0 24 -7 31
-15 7 -8 17 -12 23 -8 5 3 7 1 4 -5 -7 -10 -19 -10 -47 1 -8 3 -45 16 -83 27
-44 15 -65 26 -60 33 5 9 3 9 -8 0 -11 -9 -27 -8 -73 8 -33 10 -65 19 -73 19
-8 0 -12 3 -10 8 3 4 -11 8 -31 9 -19 1 -38 5 -41 10 -3 4 -13 10 -21 12 -8 2
-35 11 -59 19 -35 12 -41 17 -29 26 17 12 68 15 68 3z m500 -197 c0 -5 -7 -7
-15 -4 -8 4 -15 8 -15 10 0 2 7 4 15 4 8 0 15 -4 15 -10z m-516 -402 c22 -6
45 -15 51 -20 5 -4 17 -8 28 -8 24 0 151 -43 155 -52 2 -5 18 -8 35 -8 18 0
39 -5 47 -10 11 -7 -1 -10 -42 -10 -31 0 -60 5 -63 10 -3 6 -12 10 -18 10 -7
0 -6 -4 3 -10 9 -6 10 -10 3 -10 -6 0 -14 4 -17 9 -3 5 -22 9 -42 9 -20 0 -39
4 -43 9 -3 5 -13 8 -21 8 -22 -1 -111 55 -105 66 4 5 -1 6 -9 3 -9 -3 -16 -1
-16 5 0 14 3 14 54 -1z m502 -820 c5 -8 2 -9 -10 -5 -10 4 -15 3 -11 -3 8 -13
-9 -19 -60 -24 -52 -4 -69 2 -52 18 7 7 19 15 27 19 27 10 99 7 106 -5z m5498
-40 c-2 -3 -13 -6 -24 -5 -24 2 -18 13 9 13 11 0 18 -4 15 -8z m191 -167 c-3
-6 -11 -9 -16 -6 -5 4 -9 1 -9 -4 0 -6 -6 -11 -12 -11 -7 1 -2 10 11 21 24 20
39 20 26 0z m-75 -2 c0 -6 -7 -9 -15 -5 -8 3 -15 0 -15 -6 0 -6 -3 -9 -6 -5
-9 9 5 27 22 27 8 0 14 -5 14 -11z m318 -714 c-3 -3 -9 2 -12 12 -6 14 -5 15
5 6 7 -7 10 -15 7 -18z m21 -133 c0 -11 -2 -12 -6 -4 -2 6 -9 10 -14 7 -5 -4
-6 1 -3 9 8 20 24 11 23 -12z m-69 -177 c0 -12 -19 -12 -23 0 -4 9 -1 12 9 8
7 -3 14 -7 14 -8z m-127 -165 c3 -11 1 -18 -4 -14 -5 3 -9 12 -9 20 0 20 7 17
13 -6z m-1479 -355 c-5 -12 -10 -13 -20 -4 -19 15 -18 19 6 19 13 0 18 -5 14
-15z m46 -16 c-11 -8 -8 -9 12 -5 23 5 25 3 21 -17 -3 -12 -12 -27 -20 -34
-13 -10 -12 -13 6 -22 27 -15 34 -14 27 4 -7 18 3 19 27 1 13 -10 15 -15 5
-18 -11 -4 -10 -8 1 -21 10 -13 11 -20 2 -30 -6 -8 -7 -18 -3 -23 4 -5 -5 2
-20 15 -16 14 -28 29 -28 34 0 5 -13 23 -30 39 -16 15 -30 36 -30 45 0 19 30
56 39 48 3 -4 -1 -11 -9 -16z m93 -60 c7 -1 16 -1 20 0 5 1 6 -3 3 -8 -8 -12
-42 -2 -58 17 -10 12 -10 14 0 8 7 -4 12 -2 13 6 1 7 3 5 6 -4 2 -10 10 -19
16 -19z m884 -91 c-3 -7 -5 -2 -5 12 0 14 2 19 5 13 2 -7 2 -19 0 -25z m-517
7 c0 -8 -4 -15 -10 -15 -5 0 -7 7 -4 15 4 8 8 15 10 15 2 0 4 -7 4 -15z
m-3600 -121 c0 -3 -4 -2 -10 1 -5 3 -10 1 -10 -4 0 -6 6 -11 14 -11 8 0 16 -6
19 -12 9 -25 -3 -81 -21 -94 -9 -7 -13 -14 -8 -14 5 0 2 -8 -6 -17 -9 -10 -19
-28 -23 -41 -3 -12 -10 -20 -15 -17 -4 3 -7 -3 -5 -12 3 -24 -37 -93 -54 -93
-11 0 -9 4 5 16 10 8 13 12 5 8 -10 -5 -13 1 -9 29 3 30 1 35 -16 31 -15 -3
-17 -1 -8 8 17 17 15 33 -3 18 -8 -7 -15 -10 -15 -7 0 3 -3 13 -7 23 -5 13 -3
15 7 9 10 -6 12 -4 7 8 -4 12 -1 17 11 18 9 0 12 3 5 5 -17 7 6 56 23 50 8 -3
11 0 8 9 -7 18 25 67 39 58 6 -4 7 -1 3 6 -5 7 0 21 9 31 14 15 22 17 36 9 11
-5 19 -12 19 -15z m333 -353 c-4 -3 -9 -17 -11 -31 -2 -14 -11 -38 -20 -54
-20 -34 -52 -45 -45 -15 3 10 9 19 12 19 4 0 8 6 9 13 2 26 9 43 32 84 24 41
25 42 28 16 2 -14 0 -29 -5 -32z m-843 -5 c0 -11 -19 -15 -25 -6 -3 5 1 10 9
10 9 0 16 -2 16 -4z m357 -58 c-3 -8 -6 -5 -6 6 -1 11 2 17 5 13 3 -3 4 -12 1
-19z m-19 -45 c-5 -24 -27 -28 -25 -4 1 12 7 21 15 21 7 0 12 -8 10 -17z"/>
<path d="M4913 10255 c0 -8 4 -15 9 -15 4 0 8 4 8 9 0 6 -4 12 -8 15 -5 3 -9
-1 -9 -9z"/>
<path d="M4834 10254 c-7 -3 -10 -14 -7 -25 4 -15 0 -22 -16 -26 -26 -7 -28
-22 -2 -20 11 0 17 5 14 11 -4 5 1 7 9 3 12 -4 15 0 11 16 -4 20 -3 20 11 -3
8 -14 15 -19 16 -12 0 6 8 12 18 13 14 0 14 2 -3 9 -11 5 -15 9 -9 9 6 1 11 7
11 14 0 13 -32 19 -53 11z"/>
<path d="M4917 10203 c-10 -9 -9 -23 1 -23 5 0 9 7 9 15 0 17 -1 18 -10 8z"/>
<path d="M4851 10158 c1 -18 2 -19 6 -5 2 9 9 14 15 11 7 -4 8 -2 4 4 -12 20
-26 13 -25 -10z"/>
<path d="M6355 9391 c-3 -5 0 -13 6 -17 7 -4 9 -3 5 4 -3 5 0 13 6 15 9 4 10
6 1 6 -6 1 -14 -3 -18 -8z"/>
<path d="M8393 9305 c0 -8 4 -12 9 -9 5 3 6 10 3 15 -9 13 -12 11 -12 -6z"/>
<path d="M7780 9228 c0 -4 4 -8 9 -8 6 0 12 4 15 8 3 5 -1 9 -9 9 -8 0 -15 -4
-15 -9z"/>
<path d="M8300 8916 c0 -2 8 -10 18 -17 15 -13 16 -12 3 4 -13 16 -21 21 -21
13z"/>
<path d="M4780 8890 c0 -5 5 -10 11 -10 5 0 7 5 4 10 -3 6 -8 10 -11 10 -2 0
-4 -4 -4 -10z"/>
<path d="M12013 8537 c-1 -11 -1 -18 0 -16 2 2 8 11 15 20 9 12 9 16 -1 16 -7
0 -14 -9 -14 -20z"/>
<path d="M12048 8546 c-22 -16 -23 -26 -3 -26 8 0 15 5 15 11 0 5 4 7 10 4 6
-3 7 1 4 9 -3 9 -7 16 -8 16 0 0 -9 -7 -18 -14z"/>
<path d="M3364 6842 c3 -5 0 -13 -6 -15 -9 -4 -10 -6 -1 -6 17 -1 25 16 12 25
-7 4 -9 3 -5 -4z"/>
<path d="M3685 6750 c-3 -5 -1 -10 4 -10 6 0 11 5 11 10 0 6 -2 10 -4 10 -3 0
-8 -4 -11 -10z"/>
<path d="M9397 6571 c-4 -17 -3 -21 5 -13 5 5 8 16 6 23 -3 8 -7 3 -11 -10z"/>
<path d="M57 6257 c-3 -8 3 -14 15 -14 16 -2 17 1 8 13 -15 17 -17 17 -23 1z"/>
<path d="M15 6221 c-3 -5 -2 -12 3 -15 5 -3 9 1 9 9 0 17 -3 19 -12 6z"/>
<path d="M44 6201 c0 -11 3 -19 6 -18 3 1 16 -4 30 -11 23 -12 23 -12 7 2 -17
13 -15 14 20 11 34 -3 36 -2 20 10 -14 10 -15 14 -5 18 7 3 3 6 -8 6 -12 1
-27 -6 -34 -14 -11 -14 -14 -13 -24 1 -10 13 -12 13 -12 -5z"/>
<path d="M9795 6181 c-3 -5 -2 -12 3 -15 5 -3 9 1 9 9 0 17 -3 19 -12 6z"/>
<path d="M115 6149 c-4 -6 -5 -12 -2 -15 2 -3 7 2 10 11 7 17 1 20 -8 4z"/>
<path d="M9800 5968 c0 -4 7 -8 15 -8 8 0 15 4 15 8 0 5 -7 9 -15 9 -8 0 -15
-4 -15 -9z"/>
<path d="M9787 5879 c7 -7 15 -10 18 -7 3 3 -2 9 -12 12 -14 6 -15 5 -6 -5z"/>
<path d="M9848 5834 c-2 -5 -4 -16 -3 -24 0 -8 -3 -18 -8 -21 -5 -4 -4 -10 2
-13 6 -4 11 -2 11 5 0 8 5 7 18 -2 15 -12 16 -12 5 2 -7 9 -10 18 -7 22 3 3 2
13 -4 23 -5 9 -11 13 -14 8z"/>
<path d="M3206 5748 c3 -5 10 -6 15 -3 13 9 11 12 -6 12 -8 0 -12 -4 -9 -9z"/>
<path d="M4126 5468 c7 -11 34 -10 34 1 0 6 -9 9 -19 8 -11 0 -17 -5 -15 -9z"/>
<path d="M9910 5269 c0 -5 5 -7 10 -4 6 3 10 8 10 11 0 2 -4 4 -10 4 -5 0 -10
-5 -10 -11z"/>
<path d="M9765 5220 c-3 -5 -1 -10 4 -10 6 0 11 5 11 10 0 6 -2 10 -4 10 -3 0
-8 -4 -11 -10z"/>
<path d="M9735 5070 c4 -6 11 -8 16 -5 14 9 11 15 -7 15 -8 0 -12 -5 -9 -10z"/>
<path d="M9375 4710 c-3 -5 1 -10 9 -10 9 0 16 5 16 10 0 6 -4 10 -9 10 -6 0
-13 -4 -16 -10z"/>
<path d="M8850 4525 c0 -2 6 -8 13 -14 10 -8 14 -7 14 2 0 8 -6 14 -14 14 -7
0 -13 -1 -13 -2z"/>
<path d="M8275 4250 c3 -5 8 -10 11 -10 2 0 4 5 4 10 0 6 -5 10 -11 10 -5 0
-7 -4 -4 -10z"/>
<path d="M4560 4130 c0 -5 4 -10 9 -10 6 0 13 5 16 10 3 6 -1 10 -9 10 -9 0
-16 -4 -16 -10z"/>
<path d="M4835 3961 c-3 -5 -2 -12 3 -15 5 -3 9 1 9 9 0 17 -3 19 -12 6z"/>
<path d="M7080 3303 c0 -7 -4 -14 -10 -14 -5 -1 -16 -2 -22 -3 -7 -1 -12 -7
-10 -14 1 -7 -4 -11 -10 -9 -7 1 -12 -4 -10 -11 1 -7 -5 -26 -13 -42 -11 -20
-12 -30 -4 -30 8 0 8 -4 -1 -15 -10 -12 -10 -15 1 -15 9 0 10 -3 4 -8 -5 -4
-11 -14 -13 -22 -3 -12 -1 -13 9 -2 20 19 28 15 24 -13 -2 -23 9 -31 38 -26 5
1 6 -9 2 -21 -4 -16 -3 -19 3 -10 11 17 48 11 44 -7 -1 -7 2 -10 8 -6 6 3 8
10 6 14 -3 4 1 8 9 8 8 0 11 -5 8 -11 -4 -6 1 -5 10 2 9 8 21 11 27 7 6 -4 9
-1 8 7 -2 8 6 12 22 10 20 -2 22 0 10 8 -12 8 -11 11 8 16 18 5 20 9 10 15 -8
6 -9 9 -1 9 6 0 10 11 9 24 -2 15 1 23 9 20 6 -3 12 2 12 10 0 8 -4 13 -9 10
-4 -3 -8 6 -8 20 0 14 -5 26 -11 26 -5 0 -7 5 -4 10 4 6 11 8 16 5 5 -4 9 -4
9 0 0 3 -12 10 -26 15 -16 6 -24 16 -21 24 3 8 -1 13 -11 12 -9 0 -16 4 -15
10 1 6 -4 11 -12 11 -8 0 -12 -3 -10 -7 2 -4 -2 -7 -10 -7 -8 0 -12 4 -9 9 3
5 -10 8 -30 6 -22 -1 -36 -7 -36 -15z"/>
<path d="M7046 3298 c3 -5 10 -6 15 -3 13 9 11 12 -6 12 -8 0 -12 -4 -9 -9z"/>
</g>
</svg>
